<?xml version="1.0" encoding="UTF-8" standalone="no"?>
<svg
   xmlns:dc="http://purl.org/dc/elements/1.1/"
   xmlns:cc="http://creativecommons.org/ns#"
   xmlns:rdf="http://www.w3.org/1999/02/22-rdf-syntax-ns#"
   xmlns:svg="http://www.w3.org/2000/svg"
   xmlns="http://www.w3.org/2000/svg"
   viewBox="0 0 546.56 547.84003"
   height="547.84003"
   width="546.56"
   xml:space="preserve"
   id="svg2"
   version="1.1"><metadata
     id="metadata8"><rdf:RDF><cc:Work
         rdf:about=""><dc:format>image/svg+xml</dc:format><dc:type
           rdf:resource="http://purl.org/dc/dcmitype/StillImage" /><dc:title></dc:title></cc:Work></rdf:RDF></metadata><defs
     id="defs6"><clipPath
       id="clipPath18"
       clipPathUnits="userSpaceOnUse"><path
         id="path16"
         d="M 0,410.88 H 409.92 V 0 H 0 Z" /></clipPath><clipPath
       id="clipPath80"
       clipPathUnits="userSpaceOnUse"><path
         id="path78"
         d="M 0,0 H 409.92 V 410.88 H 0 Z" /></clipPath><clipPath
       id="clipPath94"
       clipPathUnits="userSpaceOnUse"><path
         id="path92"
         d="M 0,410.88 H 409.92 V 0 H 0 Z" /></clipPath></defs><g
     transform="matrix(1.3333333,0,0,-1.3333333,0,547.84)"
     id="g10"><g
       id="g12"><g
         clip-path="url(#clipPath18)"
         id="g14"><g
           transform="translate(375.8243,198.9191)"
           id="g20"><path
             id="path22"
             style="fill:#f9eddc;fill-opacity:1;fill-rule:nonzero;stroke:none"
             d="m 0,0 c 0,-30.226 -24.504,-54.726 -54.727,-54.726 -30.226,0 -54.73,24.5 -54.73,54.726 0,30.223 24.504,54.727 54.73,54.727 C -24.504,54.727 0,30.223 0,0" /></g><g
           transform="translate(389.504,212.5988)"
           id="g24"><path
             id="path26"
             style="fill:#69788d;fill-opacity:1;fill-rule:nonzero;stroke:none"
             d="M 0,0 C 0,88.934 -123.137,75.254 -123.137,75.254 V 47.887 l -27.363,-6.84 c 0,0 22.996,-78.887 34.203,-89.879 v 62.516 h 95.773 V -48.832 C -7.863,-36.418 0,-19.133 0,0" /></g><g
           transform="translate(275.4219,226.2828)"
           id="g28"><path
             id="path30"
             style="fill:#56677e;fill-opacity:1;fill-rule:nonzero;stroke:none"
             d="M 0,0 C 5.433,24.882 20.535,46.148 41.176,59.66 14.602,64.195 -9.055,61.57 -9.055,61.57 V 34.203 l -27.363,-6.84 c 0,0 22.996,-78.887 34.207,-89.879 l 0,62.516 z" /></g><g
           transform="translate(403.1876,7.3722)"
           id="g32"><path
             id="path34"
             style="fill:#eceef1;fill-opacity:1;fill-rule:nonzero;stroke:none"
             d="m 0,0 h -157.344 v 102.614 c 0,15.113 12.254,27.363 27.367,27.363 H -27.363 C -12.25,129.977 0,117.727 0,102.614 Z" /></g><path
           id="path36"
           style="fill:#37353e;fill-opacity:1;fill-rule:nonzero;stroke:none"
           d="m 307.414,137.349 h 27.363 v -27.362 h -27.363 z" /><g
           transform="translate(341.6172,41.5792)"
           id="g38"><path
             id="path40"
             style="fill:#37353e;fill-opacity:1;fill-rule:nonzero;stroke:none"
             d="M 0,0 -20.52,-13.684 -41.043,0 l 6.84,68.407 H -6.84 Z" /></g><g
           transform="translate(273.211,99.7238)"
           id="g42"><path
             id="path44"
             style="fill:#d9dde2;fill-opacity:1;fill-rule:nonzero;stroke:none"
             d="M 0,0 C 0,12.984 1.613,25.586 4.641,37.625 H 0 c -15.113,0 -27.367,-12.25 -27.367,-27.362 V -92.352 H 30.777 C 11.453,-66.625 0,-34.647 0,0" /></g><path
           id="path46"
           style="fill:#435670;fill-opacity:1;fill-rule:nonzero;stroke:none"
           d="M 26.938,308.372 H 143.231 V 239.966 H 26.938 Z" /><g
           transform="translate(139.504,308.3722)"
           id="g48"><path
             id="path50"
             style="fill:#37353e;fill-opacity:1;fill-rule:nonzero;stroke:none"
             d="m 0,0 c 0,-30.222 -24.504,-54.726 -54.727,-54.726 -30.226,0 -54.73,24.504 -54.73,54.726 0,30.227 24.504,54.727 54.73,54.727 C -24.504,54.727 0,30.227 0,0" /></g><g
           transform="translate(84.7769,301.5328)"
           id="g52"><path
             id="path54"
             style="fill:#26252b;fill-opacity:1;fill-rule:nonzero;stroke:none"
             d="m 0,0 c 18.813,0 35.399,-9.493 45.25,-23.942 5.981,8.77 9.481,19.367 9.481,30.781 0,30.227 -24.504,54.727 -54.727,54.727 -30.226,0 -54.726,-24.5 -54.726,-54.727 0,-11.414 3.496,-22.011 9.476,-30.781 C -35.394,-9.493 -18.808,0 0,0" /></g><g
           transform="translate(139.5079,335.736)"
           id="g56"><path
             id="path58"
             style="fill:#56677e;fill-opacity:1;fill-rule:nonzero;stroke:none"
             d="M 0,0 C -15.754,39.613 -43.801,60.929 -54.731,68.41 -65.656,60.929 -93.703,39.613 -109.457,0 c -16.121,-40.535 -6.043,-82.938 -3.113,-95.774 -5.547,40.668 22.644,82.094 57.839,82.094 35.2,0 64,-41.426 58.453,-82.094 C 6.656,-82.938 16.121,-40.535 0,0" /></g><g
           transform="translate(163.754,116.8292)"
           id="g60"><path
             id="path62"
             style="fill:#56677e;fill-opacity:1;fill-rule:nonzero;stroke:none"
             d="m 0,0 h -157.34 v 95.77 c 0,15.113 12.25,27.367 27.363,27.367 H -27.363 C -12.25,123.137 0,110.883 0,95.77 Z" /></g><g
           transform="translate(129.5508,137.3488)"
           id="g64"><path
             id="path66"
             style="fill:#c7ccd4;fill-opacity:1;fill-rule:nonzero;stroke:none"
             d="m 0,0 h -95.774 l -6.839,75.25 H 6.84 Z" /></g><path
           id="path68"
           style="fill:#c7ccd4;fill-opacity:1;fill-rule:nonzero;stroke:none"
           d="m 26.938,137.349 h 116.293 v -20.52 H 26.938 Z" /><g
           transform="translate(204.962,139.9181)"
           id="g70"><path
             id="path72"
             style="fill:#1c1c22;fill-opacity:1;fill-rule:nonzero;stroke:none"
             d="m 0,0 c -4.008,0 -7.27,3.257 -7.27,7.265 0,4.007 3.262,7.27 7.27,7.27 4.008,0 7.27,-3.263 7.27,-7.27 C 7.27,3.257 4.008,0 0,0 m 0,27.363 c -11.082,0 -20.098,-9.016 -20.098,-20.098 0,-11.078 9.016,-20.094 20.098,-20.094 11.078,0 20.094,9.016 20.094,20.094 0,11.082 -9.016,20.098 -20.094,20.098" /></g></g></g><g
       id="g74"><g
         clip-path="url(#clipPath80)"
         id="g76"><g
           transform="translate(200.0977,267.7511)"
           id="g82"><path
             id="path84"
             style="fill:#1c1c22;fill-opacity:1;fill-rule:nonzero;stroke:none"
             d="M 0,0 C 0,2.594 2.109,4.703 4.703,4.703 7.297,4.703 9.406,2.594 9.406,0 v -75.25 c 0,-2.594 -2.109,-4.703 -4.703,-4.703 -2.594,0 -4.703,2.109 -4.703,4.703 z m 4.703,-92.777 c 9.664,0 17.526,7.863 17.526,17.527 V 0 c 0,9.668 -7.862,17.531 -17.526,17.531 -9.668,0 -17.531,-7.863 -17.531,-17.531 v -75.25 c 0,-9.664 7.863,-17.527 17.531,-17.527" /></g><path
           id="path86"
           style="fill:#1c1c22;fill-opacity:1;fill-rule:nonzero;stroke:none"
           d="m 328.363,116.4 h -14.535 v 14.535 h 14.535 z m -7.265,-80.797 -13.758,9.172 5.879,58.801 h 15.754 l 5.882,-58.801 z m -81.664,74.383 V 72.939 c -11.254,-2.926 -22.891,-4.426 -34.633,-4.426 -37.438,0 -72.891,15.168 -98.707,41.902 h 57.66 c 3.543,0 6.414,2.868 6.414,6.411 v 95.773 c 0,13.586 -8.066,25.316 -19.656,30.676 6.789,32.613 5.98,61.992 -2.399,87.508 17.832,8.105 36.883,12.222 56.688,12.222 41.09,0 79.652,-18.324 105.617,-49.605 -23.617,3.054 -43.25,0.992 -44.758,0.824 -3.25,-0.359 -5.707,-3.106 -5.707,-6.375 v -22.356 l -22.504,-5.625 c -3.476,-0.871 -5.609,-4.57 -4.601,-8.019 3.918,-13.441 24.062,-81.082 35.871,-92.664 1.84,-1.809 4.59,-2.332 6.972,-1.336 0.028,0.012 0.051,0.027 0.079,0.039 5.371,-5.926 11.828,-10.711 18.972,-14.125 h -21.535 c -18.621,0 -33.773,-15.152 -33.773,-33.777 M 33.348,130.935 h 103.468 v -7.694 H 33.348 Z m 102.859,75.254 -5.672,-62.426 H 39.633 l -5.672,62.426 z M 32.77,246.353 c -0.461,8.488 0.628,17.14 3.085,25.348 11.446,-15.282 29.457,-24.469 48.922,-24.469 19.516,0 37.856,9.523 49.262,24.949 2.621,-8.367 3.809,-17.191 3.356,-25.828 -0.336,0.008 -104.29,0.008 -104.625,0 m 95.093,40.144 c -8.297,-16.328 -24.718,-26.437 -43.082,-26.437 -17.886,0 -34.234,9.812 -42.66,25.609 -0.086,0.157 -0.176,0.305 -0.269,0.449 2.386,4.375 5.203,8.469 8.421,12.157 9.774,11.199 22.028,17.367 34.508,17.367 12.633,0 25.074,-6.281 35.028,-17.688 3.054,-3.496 5.746,-7.351 8.054,-11.457 m -91.851,46.871 c 12.906,32.45 34.793,52.641 48.769,62.915 13.973,-10.274 35.86,-30.465 48.766,-62.915 5.613,-14.109 8.508,-29.714 8.687,-46.679 -3.312,7.121 -7.593,13.781 -12.761,19.699 -12.43,14.238 -28.301,22.078 -44.692,22.078 -16.238,0 -31.926,-7.726 -44.172,-21.754 -5.336,-6.113 -9.722,-13.035 -13.07,-20.457 0.02,14.617 2.082,31.043 8.473,47.113 M 383.094,212.599 c 0,-10.664 -2.672,-20.902 -7.699,-29.965 v 43.649 c 0,3.543 -2.868,6.414 -6.415,6.414 h -95.769 c -3.543,0 -6.414,-2.871 -6.414,-6.414 v -35.762 c -6.52,16.68 -14.051,39.547 -19.742,58.527 l 20.871,5.219 c 2.851,0.715 4.855,3.277 4.855,6.219 V 281.9 c 16.418,0.883 64.281,1.16 91.215,-22.946 12.672,-11.339 19.098,-26.937 19.098,-46.355 m -61.996,-61.996 c -17.016,0 -32.762,8.973 -41.473,23.519 v 45.746 h 82.945 v -45.75 c -8.718,-14.546 -24.461,-23.515 -41.472,-23.515 m 82.09,-67.547 c 3.542,0 6.414,2.867 6.414,6.41 v 20.52 c 0,18.625 -15.153,33.777 -33.778,33.777 h -28.375 c 7.145,3.418 13.602,8.203 18.973,14.129 2.367,-1.043 5.207,-0.516 7.051,1.293 14.476,14.195 22.445,33.164 22.445,53.414 0,23.223 -7.859,42.035 -23.367,55.914 -12.313,11.02 -27.977,17.578 -43.496,21.426 -28.012,41.265 -74.43,65.894 -124.254,65.894 -21.395,0 -41.992,-4.386 -61.297,-13.047 -15.59,35.739 -40.984,56.989 -55.102,66.653 -2.183,1.496 -5.062,1.492 -7.246,0 C 66.43,399.361 39.434,376.689 24.094,338.107 8.855,299.79 15.852,260.451 19.621,243.255 8.051,237.892 0,226.169 0,212.599 v -7.27 c 0,-3.539 2.871,-6.41 6.414,-6.41 3.543,0 6.414,2.867 6.414,6.41 v 7.27 c 0,11.555 9.399,20.953 20.949,20.953 h 102.614 c 11.55,0 20.949,-9.398 20.949,-20.953 v -89.356 h -7.695 v 14.11 c 0,3.48 -2.774,6.305 -6.231,6.402 l 6.207,68.266 c 0.336,3.699 -2.676,6.992 -6.391,6.992 H 26.938 c -3.715,0 -6.727,-3.293 -6.391,-6.992 l 6.207,-68.266 c -3.457,-0.097 -6.231,-2.922 -6.231,-6.402 v -14.11 h -7.695 v 47.458 c 0,3.542 -2.871,6.414 -6.414,6.414 C 2.871,177.115 0,174.243 0,170.701 v -53.872 c 0,-3.543 2.871,-6.414 6.414,-6.414 h 82.672 c 0.211,-0.398 0.461,-0.777 0.758,-1.132 28.617,-34.063 70.515,-53.594 114.957,-53.594 11.715,0 23.336,1.363 34.633,4.031 V 7.372 c 0,-3.543 2.871,-6.414 6.414,-6.414 h 157.34 c 3.542,0 6.414,2.871 6.414,6.414 v 47.461 c 0,3.543 -2.872,6.414 -6.414,6.414 -3.543,0 -6.415,-2.871 -6.415,-6.414 V 13.786 H 252.258 v 96.2 c 0,11.554 9.398,20.949 20.953,20.949 H 301 v -20.629 l -6.809,-68.09 c -0.234,-2.359 0.848,-4.66 2.825,-5.973 L 317.539,22.56 c 2.129,-1.418 4.984,-1.422 7.113,0 l 20.524,13.683 c 1.972,1.313 3.058,3.614 2.824,5.973 l -6.809,68.09 v 20.629 h 34.633 c 11.551,0 20.949,-9.395 20.949,-20.949 v -20.52 c 0,-3.543 2.872,-6.41 6.415,-6.41" /></g></g><g
       id="g88"><g
         clip-path="url(#clipPath94)"
         id="g90"><g
           transform="translate(300.5743,205.3331)"
           id="g96"><path
             id="path98"
             style="fill:#1c1c22;fill-opacity:1;fill-rule:nonzero;stroke:none"
             d="M 0,0 C -3.543,0 -6.414,-2.871 -6.414,-6.414 V -7.27 c 0,-3.543 2.871,-6.414 6.414,-6.414 3.543,0 6.414,2.871 6.414,6.414 v 0.856 C 6.414,-2.871 3.543,0 0,0" /></g><g
           transform="translate(341.6172,205.3331)"
           id="g100"><path
             id="path102"
             style="fill:#1c1c22;fill-opacity:1;fill-rule:nonzero;stroke:none"
             d="M 0,0 C -3.543,0 -6.414,-2.871 -6.414,-6.414 V -7.27 c 0,-3.543 2.871,-6.414 6.414,-6.414 3.543,0 6.414,2.871 6.414,6.414 v 0.856 C 6.414,-2.871 3.543,0 0,0" /></g><g
           transform="translate(78.2422,178.8224)"
           id="g104"><path
             id="path106"
             style="fill:#000000;fill-opacity:1;fill-rule:nonzero;stroke:none"
             d="m 0,0 h 0.43 v -14.11 c 0,-3.543 2.871,-6.414 6.414,-6.414 3.539,0 6.41,2.871 6.41,6.414 V 0 h 0.43 c 3.539,0 6.414,2.871 6.414,6.414 0,3.543 -2.871,6.413 -6.414,6.413 L 0,12.827 c -3.539,0 -6.414,-2.87 -6.414,-6.413 C -6.414,2.871 -3.539,0 0,0" /></g></g></g></g></svg>