<svg xmlns="http://www.w3.org/2000/svg" viewBox="0 0 203.4 37.94"><defs><style>.cls-1{fill:#fff;}</style></defs><title>Asset 1</title><g id="Layer_2" data-name="Layer 2"><g id="Layer_1-2" data-name="Layer 1"><g id="Layer_2-2" data-name="Layer 2"><g id="Слой_1" data-name="Слой 1"><polygon id="_Path_" data-name=" Path " class="cls-1" points="28.12 1.88 28.12 28.07 0.08 0 0 36.61 3.93 36.61 3.93 9.62 32.24 37.94 32.24 1.88 28.12 1.88"/><path id="_Compound_Path_" data-name=" Compound Path " class="cls-1" d="M56.07.82C66.46.78,73.85,8,74,18.38c.14,10.54-7.31,18.25-17.67,18.28s-17.91-7.48-17.91-18S45.73.87,56.07.82Zm0,3.81C48.07,4.7,42.3,10.82,42.49,19c.18,8,6,13.77,13.85,13.73a13.42,13.42,0,0,0,13.59-14C69.91,10.5,64.07,4.56,56,4.64Z"/><g id="_Group_" data-name=" Group "><polygon id="_Path_2" data-name=" Path 2" class="cls-1" points="119.99 10.29 106.49 36.66 102.07 36.66 119.98 1.75 137.91 36.66 133.49 36.66 119.99 10.29"/></g><g id="_Group_2" data-name=" Group 2"><polygon id="_Path_3" data-name=" Path 3" class="cls-1" points="92.06 28.12 78.56 1.75 74.14 1.75 92.05 36.66 109.98 1.75 105.56 1.75 92.06 28.12"/></g><path class="cls-1" d="M185.81,1.51l-56.39-.08C143.11,28.66,147,36.65,163.23,36.75h0c-.33.17,18.47,0,23.5,0,9.8,0,16.67-7.58,16.67-17.33A17.78,17.78,0,0,0,185.81,1.51ZM161.94,12.15c-1.16,3.46-2.36,6.92-3.55,10.37-.49,1.42-1,2.84-1.48,4.24a1.78,1.78,0,0,1-3.46-.08c-.58-1.58-1.1-3.18-1.65-4.77l-3.22-9.4a4.89,4.89,0,0,1-.21-.76,1.44,1.44,0,0,1,1-1.8h0a1.48,1.48,0,0,1,1.87.94l0,.06c.23.59.42,1.19.61,1.79l3.43,10.46c.53-1.67,3-9.43,3.73-11.83.2-.64.45-1.26,1.21-1.42C161.59,9.65,162.43,10.7,161.94,12.15Zm10.54,9h-4.26v5.37a1.53,1.53,0,1,1-3.05,0V11.89c0-1.57.35-1.93,1.89-1.92,1.92,0,3.85-.05,5.77.07A5.31,5.31,0,0,1,178,15.47q0,.18,0,.35a5.4,5.4,0,0,1-5.47,5.33Zm21.84,4.64c0,1.38-.31,2-1.2,2.21a2,2,0,0,1-2.42-1.17c-1.66-2.75-6.15-10.19-6.87-11.34V26.28c0,1-.31,1.51-1.06,1.72A1.36,1.36,0,0,1,181,26.85a2.42,2.42,0,0,1,0-.31V11.76A1.65,1.65,0,0,1,182.11,10a1.9,1.9,0,0,1,2.17.74A11.75,11.75,0,0,1,185.1,12c1.94,3.28,6.32,10.48,6.37,10.46q0-5.21,0-10.43a6.27,6.27,0,0,1,0-.87,1.33,1.33,0,0,1,1.38-1.27H193a1.29,1.29,0,0,1,1.36,1.35c0,1.37,0,11.06,0,14.54Z"/><path class="cls-1" d="M172.78,12.93c-1.47-.15-3,0-4.51,0v5.4c1.53,0,3,.1,4.46,0a2.48,2.48,0,0,0,2.19-2.66,2.42,2.42,0,0,0-2.06-2.73Z"/></g></g></g></g></svg>