<?xml version="1.0" encoding="UTF-8" standalone="no"?>
<svg
   xmlns:dc="http://purl.org/dc/elements/1.1/"
   xmlns:cc="http://creativecommons.org/ns#"
   xmlns:rdf="http://www.w3.org/1999/02/22-rdf-syntax-ns#"
   xmlns:svg="http://www.w3.org/2000/svg"
   xmlns="http://www.w3.org/2000/svg"
   viewBox="0 0 512 547.84003"
   height="547.84003"
   width="512"
   xml:space="preserve"
   id="svg2"
   version="1.1"><metadata
     id="metadata8"><rdf:RDF><cc:Work
         rdf:about=""><dc:format>image/svg+xml</dc:format><dc:type
           rdf:resource="http://purl.org/dc/dcmitype/StillImage" /><dc:title></dc:title></cc:Work></rdf:RDF></metadata><defs
     id="defs6"><clipPath
       id="clipPath18"
       clipPathUnits="userSpaceOnUse"><path
         id="path16"
         d="M 0,410.88 H 384 V 0 H 0 Z" /></clipPath><clipPath
       id="clipPath62"
       clipPathUnits="userSpaceOnUse"><path
         id="path60"
         d="M 0,0 H 384 V 410.88 H 0 Z" /></clipPath><clipPath
       id="clipPath78"
       clipPathUnits="userSpaceOnUse"><path
         id="path76"
         d="M 0,410.88 H 384 V 0 H 0 Z" /></clipPath></defs><g
     transform="matrix(1.3333333,0,0,-1.3333333,0,547.84)"
     id="g10"><g
       id="g12"><g
         clip-path="url(#clipPath18)"
         id="g14"><g
           transform="translate(362.8362,376.7838)"
           id="g20"><path
             id="path22"
             style="fill:#d9dde2;fill-opacity:1;fill-rule:nonzero;stroke:none"
             d="m 0,0 c -20.562,-2.89 -48.941,-4.668 -82.094,0 -38.457,5.414 -68.754,17.45 -88.937,27.364 C -191.215,17.45 -221.512,5.414 -259.969,0 c -33.152,-4.668 -61.531,-2.89 -82.094,0 -9.339,-45.316 -16.683,-103.554 -13.683,-171.031 1.828,-41.066 7.14,-77.836 13.683,-109.461 22.075,-5.803 47.754,-14.398 75.254,-27.363 41.043,-19.358 72.809,-42.18 95.778,-61.574 22.969,19.394 54.734,42.216 95.777,61.574 27.5,12.969 53.18,21.56 75.254,27.363 6.543,31.625 11.855,68.395 13.684,109.461 C 16.68,-103.55 9.34,-45.316 0,0" /></g><g
           transform="translate(191.8054,33.8039)"
           id="g24"><path
             id="path26"
             style="fill:#3cbde8;fill-opacity:1;fill-rule:nonzero;stroke:none"
             d="m 0,0 c -26.965,21.113 -56.172,39.137 -87.024,53.688 -21.34,10.062 -43.597,18.511 -66.32,25.179 -5.82,31.031 -9.473,62.586 -10.867,93.992 -2.192,49.262 1.097,98.852 9.769,147.676 8.16,-0.633 16.348,-0.953 24.489,-0.953 14.636,0 29.398,1.035 43.878,3.074 29.766,4.192 58.676,12.59 86.075,24.996 27.398,-12.406 56.308,-20.804 86.074,-24.996 14.48,-2.039 29.242,-3.074 43.879,-3.074 8.144,0 16.328,0.32 24.488,0.953 8.672,-48.824 11.957,-98.414 9.769,-147.676 -1.398,-31.406 -5.046,-62.961 -10.867,-93.992 C 130.621,72.199 108.363,63.75 87.023,53.688 56.171,39.137 26.964,21.113 0,0" /></g><g
           transform="translate(346.2463,354.3429)"
           id="g28"><path
             id="path30"
             style="fill:#1c1c22;fill-opacity:1;fill-rule:nonzero;stroke:none"
             d="m 0,0 c -8.16,-0.637 -16.344,-0.953 -24.488,-0.953 -14.633,0 -29.399,1.031 -43.879,3.07 -29.766,4.192 -58.676,12.59 -86.074,24.996 V -128.066 H 10.344 C 10.984,-85.281 7.523,-42.352 0,0" /></g><g
           transform="translate(191.8054,226.277)"
           id="g32"><path
             id="path34"
             style="fill:#37353e;fill-opacity:1;fill-rule:nonzero;stroke:none"
             d="m 0,0 v -192.473 c 26.964,21.113 56.171,39.137 87.023,53.687 21.34,10.063 43.598,18.512 66.32,25.18 5.821,31.031 9.473,62.586 10.867,93.992 0.29,6.535 0.477,13.071 0.575,19.614 z" /></g><g
           transform="translate(191.8054,381.4562)"
           id="g36"><path
             id="path38"
             style="fill:#37353e;fill-opacity:1;fill-rule:nonzero;stroke:none"
             d="m 0,0 c -27.399,-12.406 -56.309,-20.804 -86.075,-24.996 -14.48,-2.039 -29.242,-3.07 -43.878,-3.07 -8.141,0 -16.329,0.32 -24.489,0.953 -7.523,-42.352 -10.984,-85.277 -10.343,-128.066 H 0 Z" /></g><g
           transform="translate(27.0203,226.277)"
           id="g40"><path
             id="path42"
             style="fill:#1c1c22;fill-opacity:1;fill-rule:nonzero;stroke:none"
             d="m 0,0 c 0.097,-6.543 0.285,-13.079 0.574,-19.614 1.398,-31.406 5.047,-62.961 10.867,-93.992 22.723,-6.668 44.98,-15.117 66.32,-25.18 30.852,-14.55 60.059,-32.574 87.024,-53.687 V 0 Z" /></g><g
           transform="translate(67.8093,239.9601)"
           id="g44"><path
             id="path46"
             style="fill:#212026;fill-opacity:1;fill-rule:nonzero;stroke:none"
             d="m 0,0 c 0,41.406 9.136,80.492 25.336,114.996 -10.395,-1.035 -20.875,-1.57 -31.293,-1.57 -8.141,0 -16.329,0.32 -24.489,0.953 C -37.969,72.031 -41.43,29.102 -40.789,-13.683 H 0.339 C 0.117,-9.152 0,-4.594 0,0" /></g><g
           transform="translate(27.0203,226.277)"
           id="g48"><path
             id="path50"
             style="fill:#0f0f11;fill-opacity:1;fill-rule:nonzero;stroke:none"
             d="m 0,0 c 0.097,-6.543 0.285,-13.079 0.574,-19.614 1.398,-31.406 5.047,-62.961 10.867,-93.992 22.723,-6.668 44.98,-15.117 66.32,-25.18 5.219,-2.46 10.387,-5.031 15.508,-7.687 C 62.949,-106.141 43.843,-55.442 41.128,0 Z" /></g><g
           transform="translate(167.8591,157.8634)"
           id="g52"><path
             id="path54"
             style="fill:#ffffff;fill-opacity:1;fill-rule:nonzero;stroke:none"
             d="m 0,0 c -4.375,0 -8.754,1.671 -12.093,5.011 l -61.571,61.571 c -6.679,6.679 -6.679,17.506 0,24.187 6.68,6.68 17.508,6.68 24.188,0 L 0,41.293 97.368,138.656 c 6.675,6.678 17.507,6.678 24.187,0 6.676,-6.68 6.676,-17.509 0,-24.188 L 12.094,5.011 C 8.754,1.671 4.379,0 0,0" /></g></g></g><g
       id="g56"><g
         clip-path="url(#clipPath62)"
         id="g58"><g
           transform="translate(289.4143,296.5231)"
           id="g64"><path
             id="path66"
             style="fill:#d1d1d1;fill-opacity:1;fill-rule:nonzero;stroke:none"
             d="m 0,0 -116.715,-116.719 c -2.672,-2.672 -7.004,-2.672 -9.676,0 l -68.828,68.828 c -6.679,-6.68 -6.679,-17.508 0,-24.187 l 61.571,-61.571 c 3.339,-3.34 7.718,-5.011 12.093,-5.011 4.379,0 8.754,1.671 12.098,5.011 L 0,-24.192 C 6.68,-17.512 6.68,-6.68 0,0" /></g><g
           transform="translate(370.1096,206.0382)"
           id="g68"><path
             id="path70"
             style="fill:#1c1c22;fill-opacity:1;fill-rule:nonzero;stroke:none"
             d="m 0,0 c -1.551,-34.977 -5.848,-70.137 -12.766,-104.578 -24.879,-6.785 -49.25,-15.77 -72.496,-26.731 -33.25,-15.683 -64.527,-35.523 -93.042,-59.023 -28.516,23.5 -59.793,43.34 -93.043,59.023 -23.246,10.961 -47.617,19.946 -72.496,26.731 -6.918,34.441 -11.211,69.601 -12.766,104.578 -2.431,54.621 1.734,109.633 12.379,163.614 25.91,-3.114 52.082,-2.852 77.883,0.781 30.55,4.301 60.152,13.242 88.043,26.59 27.89,-13.348 57.491,-22.289 88.042,-26.59 25.801,-3.633 51.973,-3.895 77.883,-0.781 C -1.734,109.633 2.43,54.621 0,0 m -0.992,172.039 c -0.684,3.313 -3.824,5.523 -7.172,5.059 -26.68,-3.75 -53.699,-3.75 -80.309,0 -30.238,4.254 -59.511,13.262 -87.004,26.77 -1.78,0.875 -3.87,0.875 -5.655,0 -27.493,-13.508 -56.766,-22.516 -87,-26.77 -26.61,-3.746 -53.634,-3.746 -80.309,0 -3.34,0.464 -6.493,-1.746 -7.176,-5.059 -11.726,-56.882 -16.371,-114.961 -13.808,-172.609 1.644,-36.965 6.289,-74.137 13.808,-110.477 0.492,-2.383 2.293,-4.285 4.649,-4.902 25.461,-6.696 50.409,-15.766 74.152,-26.965 33.855,-15.965 65.605,-36.379 94.375,-60.668 2.358,-1.996 5.914,-1.996 8.273,0 28.766,24.289 60.52,44.703 94.375,60.668 23.742,11.199 48.688,20.269 74.148,26.965 2.356,0.617 4.157,2.519 4.653,4.902 7.519,36.34 12.164,73.508 13.808,110.477 2.563,57.648 -2.082,115.727 -13.808,172.609" /></g></g></g><g
       id="g72"><g
         clip-path="url(#clipPath78)"
         id="g74"><g
           transform="translate(345.7502,360.7379)"
           id="g80"><path
             id="path82"
             style="fill:#1c1c22;fill-opacity:1;fill-rule:nonzero;stroke:none"
             d="m 0,0 c -7.977,-0.622 -16.051,-0.938 -23.992,-0.938 -14.34,0 -28.801,1.016 -42.985,3.012 -29.125,4.101 -57.492,12.34 -84.324,24.488 -1.679,0.762 -3.609,0.762 -5.289,0 -26.832,-12.148 -55.199,-20.391 -84.324,-24.488 -14.18,-1.996 -28.645,-3.012 -42.984,-3.012 -7.942,0 -16.016,0.316 -23.989,0.938 -3.301,0.253 -6.238,-2.028 -6.812,-5.274 -8.75,-49.266 -12.071,-99.422 -9.863,-149.086 1.406,-31.652 5.097,-63.578 10.972,-94.887 0.442,-2.371 2.18,-4.293 4.496,-4.972 22.391,-6.573 44.391,-14.926 65.391,-24.828 30.363,-14.321 59.23,-32.129 85.805,-52.934 1.16,-0.91 2.558,-1.363 3.953,-1.363 1.398,0 2.793,0.453 3.957,1.363 26.57,20.805 55.441,38.613 85.804,52.934 20.996,9.902 43,18.255 65.391,24.828 2.316,0.679 4.051,2.601 4.496,4.972 5.875,31.309 9.567,63.235 10.973,94.887 0.39,8.848 0.613,17.832 0.656,26.707 0.016,3.543 -2.844,6.426 -6.387,6.446 h -0.027 c -3.527,0 -6.398,-2.852 -6.414,-6.383 -0.043,-8.707 -0.258,-17.524 -0.645,-26.2 -1.324,-29.757 -4.703,-59.761 -10.054,-89.25 -21.719,-6.578 -43.051,-14.781 -63.461,-24.406 -29.727,-14.019 -58.059,-31.293 -84.285,-51.375 -26.227,20.082 -54.563,37.356 -84.286,51.375 -20.414,9.625 -41.742,17.824 -63.464,24.406 -5.348,29.485 -8.731,59.489 -10.055,89.25 -2.078,46.817 0.844,94.086 8.695,140.598 6.395,-0.379 12.813,-0.574 19.156,-0.574 14.934,0 30,1.055 44.774,3.137 29.375,4.136 58.019,12.316 85.18,24.32 27.16,-12.004 55.8,-20.184 85.179,-24.32 14.774,-2.082 29.84,-3.137 44.774,-3.137 6.34,0 12.761,0.195 19.152,0.574 3.734,-22.14 6.379,-44.64 7.867,-66.969 0.235,-3.535 3.297,-6.199 6.828,-5.972 3.532,0.238 6.207,3.293 5.973,6.828 -1.648,24.699 -4.684,49.609 -9.02,74.027 C 6.23,-2.028 3.289,0.253 0,0" /></g></g></g></g></svg>