<?xml version="1.0" encoding="UTF-8" standalone="no"?>
<svg
   xmlns:dc="http://purl.org/dc/elements/1.1/"
   xmlns:cc="http://creativecommons.org/ns#"
   xmlns:rdf="http://www.w3.org/1999/02/22-rdf-syntax-ns#"
   xmlns:svg="http://www.w3.org/2000/svg"
   xmlns="http://www.w3.org/2000/svg"
   viewBox="0 0 500.05734 546.13599"
   height="546.13599"
   width="500.05734"
   xml:space="preserve"
   id="svg2"
   version="1.1"><metadata
     id="metadata8"><rdf:RDF><cc:Work
         rdf:about=""><dc:format>image/svg+xml</dc:format><dc:type
           rdf:resource="http://purl.org/dc/dcmitype/StillImage" /><dc:title></dc:title></cc:Work></rdf:RDF></metadata><defs
     id="defs6"><clipPath
       id="clipPath18"
       clipPathUnits="userSpaceOnUse"><path
         id="path16"
         d="M 0,409.602 H 375.043 V 0 H 0 Z" /></clipPath></defs><g
     transform="matrix(1.3333333,0,0,-1.3333333,0,546.136)"
     id="g10"><g
       id="g12"><g
         clip-path="url(#clipPath18)"
         id="g14"><g
           transform="translate(348.4961,6.3247)"
           id="g20"><path
             id="path22"
             style="fill:#c7ccd4;fill-opacity:1;fill-rule:nonzero;stroke:none"
             d="m 0,0 h -202.269 c -11.172,0 -20.227,9.055 -20.227,20.227 V 202.27 c 0,11.171 9.055,20.226 20.227,20.226 H 0 c 11.172,0 20.227,-9.055 20.227,-20.226 V 20.227 C 20.227,9.055 11.172,0 0,0" /></g><g
           transform="translate(179.938,228.8208)"
           id="g24"><path
             id="path26"
             style="fill:#7c899b;fill-opacity:1;fill-rule:nonzero;stroke:none"
             d="m 0,0 v 121.363 c 0,29.277 -23.821,53.098 -53.098,53.098 h -67.422 c -29.277,0 -53.098,-23.821 -53.098,-53.098 v -60.68 c 0,-6.984 5.66,-12.644 12.645,-12.644 6.98,0 12.64,5.66 12.64,12.644 v 60.68 c 0,15.336 12.477,27.813 27.813,27.813 h 67.422 c 15.336,0 27.812,-12.477 27.812,-27.813 L -25.286,0 Z" /></g><path
           id="path28"
           style="fill:#56677e;fill-opacity:1;fill-rule:nonzero;stroke:none"
           d="m 152.969,255.793 h 26.969 V 228.82 h -26.969 z" /><path
           id="path30"
           style="fill:#a1abb8;fill-opacity:1;fill-rule:nonzero;stroke:none"
           d="M 126,188.368 H 368.723 V 46.778 H 126 Z" /><g
           transform="translate(250.7305,174.8833)"
           id="g32"><path
             id="path34"
             style="fill:#1c1c22;fill-opacity:1;fill-rule:nonzero;stroke:none"
             d="m 0,0 -113.355,-113.355 -1.263,-1.266 h 67.423 L 67.426,0 Z" /></g><g
           transform="translate(248.2031,172.3559)"
           id="g36"><path
             id="path38"
             style="fill:#37353e;fill-opacity:1;fill-rule:nonzero;stroke:none"
             d="m 0,0 2.527,2.527 h -67.421 l -57.309,-57.312 v -57.309 h 10.113 l 1.262,1.266 z" /></g><g
           transform="translate(126,174.8833)"
           id="g40"><path
             id="path42"
             style="fill:#1c1c22;fill-opacity:1;fill-rule:nonzero;stroke:none"
             d="M 0,0 V -57.313 L 57.309,0 Z" /></g><g
           transform="translate(368.7227,158.0278)"
           id="g44"><path
             id="path46"
             style="fill:#1c1c22;fill-opacity:1;fill-rule:nonzero;stroke:none"
             d="M 0,0 -97.762,-97.766 H 0 Z" /></g><g
           transform="translate(368.7227,174.8833)"
           id="g48"><path
             id="path50"
             style="fill:#37353e;fill-opacity:1;fill-rule:nonzero;stroke:none"
             d="m 0,0 h -50.566 l -114.621,-114.621 h 67.425 L 0,-16.855 Z" /></g><g
           transform="translate(289.3086,276.02)"
           id="g52"><path
             id="path54"
             style="fill:#db6b5e;fill-opacity:1;fill-rule:nonzero;stroke:none"
             d="m 0,0 c 0,-7.449 -6.039,-13.484 -13.484,-13.484 -7.45,0 -13.489,6.035 -13.489,13.484 0,7.445 6.039,13.484 13.489,13.484 C -6.039,13.484 0,7.445 0,0" /></g><g
           transform="translate(286.2187,66.5825)"
           id="g56"><path
             id="path58"
             style="fill:#1c1c22;fill-opacity:1;fill-rule:nonzero;stroke:none"
             d="M 0,0 76.184,76.184 V 0 Z M -139.992,155.917 H 62.277 c 7.668,0 13.907,-6.237 13.907,-13.905 v -27.391 h -230.083 v 27.391 c 0,7.668 6.239,13.905 13.907,13.905 m -13.907,-89.668 v 35.731 h 35.727 z m 0,-66.249 v 48.598 c 0.387,0.246 0.758,0.531 1.098,0.871 l 52.508,52.511 h 49.547 L -152.727,0 Z m 19.051,0 100.879,100.879 c 0.34,0.34 0.629,0.711 0.875,1.101 h 49.77 L -85.301,0 Z M -17.723,0 H -67.422 L 34.09,101.512 c 0.148,0.152 0.289,0.304 0.422,0.468 H 76.184 V 94.063 L -16.988,0.891 C -17.266,0.613 -17.508,0.312 -17.723,0 m 80,168.559 H -99.961 v 115.043 c 0,32.761 -26.653,59.418 -59.418,59.418 h -67.422 c -32.762,0 -59.418,-26.657 -59.418,-59.418 v -60.681 c 0,-10.457 8.508,-18.963 18.965,-18.963 10.457,0 18.961,8.506 18.961,18.963 v 60.681 c 0,11.852 9.64,21.492 21.492,21.492 h 67.422 c 11.851,0 21.492,-9.64 21.492,-21.492 v -26.97 c 0,-3.491 2.832,-6.32 6.32,-6.32 3.493,0 6.321,2.829 6.321,6.32 v 26.97 c 0,18.819 -15.309,34.132 -34.133,34.132 h -67.422 c -18.824,0 -34.136,-15.313 -34.136,-34.132 v -60.681 c 0,-3.487 -2.833,-6.323 -6.321,-6.323 -3.484,0 -6.32,2.836 -6.32,6.323 v 60.681 c 0,25.793 20.984,46.776 46.777,46.776 h 67.422 c 25.793,0 46.777,-20.983 46.777,-46.776 V 168.559 h -12.644 v 54.362 c 0,3.494 -2.828,6.322 -6.321,6.322 -3.488,0 -6.32,-2.828 -6.32,-6.322 v -54.362 h -2.105 c -14.641,0 -26.551,-11.907 -26.551,-26.547 V -40.031 c 0,-14.641 11.91,-26.551 26.551,-26.551 H 8.34 c 3.492,0 6.32,2.832 6.32,6.324 0,3.488 -2.832,6.32 -6.32,6.32 h -148.332 c -7.668,0 -13.907,6.239 -13.907,13.907 v 27.39 H 76.184 v -27.39 c 0,-7.668 -6.239,-13.907 -13.907,-13.907 H 42.051 c -3.492,0 -6.321,-2.832 -6.321,-6.32 0,-3.492 2.829,-6.324 6.321,-6.324 h 20.226 c 14.641,0 26.547,11.91 26.547,26.551 v 182.043 c 0,14.64 -11.906,26.547 -26.547,26.547" /></g><g
           transform="translate(275.8242,268.8559)"
           id="g60"><path
             id="path62"
             style="fill:#1c1c22;fill-opacity:1;fill-rule:nonzero;stroke:none"
             d="m 0,0 c -3.949,0 -7.164,3.211 -7.164,7.164 0,3.949 3.215,7.164 7.164,7.164 3.953,0 7.164,-3.215 7.164,-7.164 C 7.164,3.211 3.953,0 0,0 m 0,26.969 c -10.918,0 -19.805,-8.887 -19.805,-19.805 0,-10.922 8.887,-19.809 19.805,-19.809 10.922,0 19.809,8.887 19.809,19.809 0,10.918 -8.887,19.805 -19.809,19.805" /></g><g
           transform="translate(227.8516,323.9931)"
           id="g64"><path
             id="path66"
             style="fill:#1c1c22;fill-opacity:1;fill-rule:nonzero;stroke:none"
             d="m 0,0 c 12.816,12.812 29.852,19.871 47.973,19.871 18.121,0 35.16,-7.059 47.976,-19.871 2.571,-2.571 6.91,-2.399 9.274,0.363 2.117,2.473 1.965,6.273 -0.336,8.578 C 89.688,24.14 69.473,32.511 47.973,32.511 26.477,32.511 6.262,24.14 -8.938,8.937 -11.406,6.468 -11.406,2.468 -8.938,0 -6.469,-2.469 -2.469,-2.469 0,0" /></g><g
           transform="translate(313.9648,307.8359)"
           id="g68"><path
             id="path70"
             style="fill:#1c1c22;fill-opacity:1;fill-rule:nonzero;stroke:none"
             d="m 0,0 c 5.527,0 8.367,6.899 4.473,10.793 -11.383,11.379 -26.516,17.649 -42.614,17.649 -16.093,0 -31.226,-6.27 -42.609,-17.649 -2.469,-2.468 -2.469,-6.472 0,-8.937 2.469,-2.469 6.473,-2.469 8.937,0 8.997,8.992 20.954,13.945 33.672,13.945 12.719,0 24.68,-4.953 33.672,-13.945 C -3.234,0.621 -1.617,0 0,0" /></g><g
           transform="translate(304.1328,295.3872)"
           id="g72"><path
             id="path74"
             style="fill:#1c1c22;fill-opacity:1;fill-rule:nonzero;stroke:none"
             d="M 0,0 C 2.469,2.469 2.469,6.473 0,8.938 -7.562,16.5 -17.613,20.664 -28.309,20.664 -39,20.664 -49.055,16.5 -56.613,8.938 c -2.469,-2.469 -2.469,-6.469 0,-8.938 2.468,-2.469 6.468,-2.469 8.937,0 5.176,5.172 12.051,8.024 19.367,8.024 7.317,0 14.196,-2.852 19.371,-8.024 2.434,-2.437 6.504,-2.437 8.938,0" /></g></g></g></g></svg>