<?xml version="1.0" encoding="UTF-8" standalone="no"?>
<svg
   xmlns:dc="http://purl.org/dc/elements/1.1/"
   xmlns:cc="http://creativecommons.org/ns#"
   xmlns:rdf="http://www.w3.org/1999/02/22-rdf-syntax-ns#"
   xmlns:svg="http://www.w3.org/2000/svg"
   xmlns="http://www.w3.org/2000/svg"
   viewBox="0 0 483.84 547.84003"
   height="547.84003"
   width="483.84"
   xml:space="preserve"
   id="svg2"
   version="1.1"><metadata
     id="metadata8"><rdf:RDF><cc:Work
         rdf:about=""><dc:format>image/svg+xml</dc:format><dc:type
           rdf:resource="http://purl.org/dc/dcmitype/StillImage" /><dc:title></dc:title></cc:Work></rdf:RDF></metadata><defs
     id="defs6"><clipPath
       id="clipPath18"
       clipPathUnits="userSpaceOnUse"><path
         id="path16"
         d="M 0,410.88 H 362.88 V 0 H 0 Z" /></clipPath><clipPath
       id="clipPath66"
       clipPathUnits="userSpaceOnUse"><path
         id="path64"
         d="M 0,0 H 362.88 V 410.88 H 0 Z" /></clipPath><clipPath
       id="clipPath82"
       clipPathUnits="userSpaceOnUse"><path
         id="path80"
         d="M 0,410.88 H 362.88 V 0 H 0 Z" /></clipPath></defs><g
     transform="matrix(1.3333333,0,0,-1.3333333,0,547.84)"
     id="g10"><g
       id="g12"><g
         clip-path="url(#clipPath18)"
         id="g14"><g
           transform="translate(243.6172,7.4826)"
           id="g20"><path
             id="path22"
             style="fill:#37353e;fill-opacity:1;fill-rule:nonzero;stroke:none"
             d="m 0,0 h -125.226 v 83.484 c 0,7.689 6.23,13.918 13.914,13.918 h 97.398 C -6.227,97.402 0,91.173 0,83.484 Z" /></g><g
           transform="translate(153.1758,104.881)"
           id="g24"><path
             id="path26"
             style="fill:#242328;fill-opacity:1;fill-rule:nonzero;stroke:none"
             d="m 0,0 h -20.871 c -7.684,0 -13.914,-6.229 -13.914,-13.914 v -83.484 h 20.871 v 83.484 C -13.914,-6.226 -7.684,0 0,0" /></g><g
           transform="translate(194.918,70.0959)"
           id="g28"><path
             id="path30"
             style="fill:#69788d;fill-opacity:1;fill-rule:nonzero;stroke:none"
             d="m 0,0 c 0,-7.684 -6.23,-13.914 -13.914,-13.914 -7.688,0 -13.914,6.23 -13.914,13.914 0,7.687 6.226,13.914 13.914,13.914 C -6.23,13.914 0,7.687 0,0" /></g><g
           transform="translate(343.3437,312.444)"
           id="g32"><path
             id="path34"
             style="fill:#dddddd;fill-opacity:1;fill-rule:nonzero;stroke:none"
             d="m 0,0 c -3.113,0 -6.23,1.187 -8.609,3.566 -41.063,41.063 -95.657,63.68 -153.731,63.68 -58.074,0 -112.668,-22.617 -153.731,-63.68 -4.753,-4.754 -12.464,-4.754 -17.218,0 -4.754,4.754 -4.754,12.461 0,17.219 45.66,45.664 106.371,70.808 170.949,70.808 64.578,0 125.289,-25.144 170.949,-70.808 4.754,-4.758 4.754,-12.465 0,-17.219 C 6.234,1.191 3.117,0 0,0" /></g><g
           transform="translate(10.0552,320.4669)"
           id="g36"><path
             id="path38"
             style="fill:#f2f2f2;fill-opacity:1;fill-rule:nonzero;stroke:none"
             d="m 0,0 c 45.66,45.66 106.371,70.809 170.949,70.809 64.578,0 125.289,-25.149 170.949,-70.809 0.687,-0.687 1.262,-1.437 1.75,-2.23 2.894,4.695 2.32,10.921 -1.75,14.992 C 296.238,58.426 235.527,83.57 170.949,83.57 106.371,83.57 45.66,58.426 0,12.762 -4.071,8.691 -4.645,2.465 -1.746,-2.23 -1.258,-1.437 -0.684,-0.687 0,0" /></g><g
           transform="translate(299.0703,261.213)"
           id="g40"><path
             id="path42"
             style="fill:#dddddd;fill-opacity:1;fill-rule:nonzero;stroke:none"
             d="m 0,0 c -3.113,0 -6.23,1.188 -8.609,3.567 -29.235,29.238 -68.11,45.339 -109.457,45.339 -41.344,0 -80.219,-16.101 -109.457,-45.339 -4.754,-4.754 -12.461,-4.754 -17.215,0 -4.758,4.753 -4.758,12.464 0,17.218 33.836,33.836 78.823,52.469 126.675,52.469 47.852,0 92.836,-18.633 126.672,-52.469 4.758,-4.754 4.758,-12.465 0,-17.218 C 6.23,1.188 3.117,0 0,0" /></g><g
           transform="translate(54.3281,269.924)"
           id="g44"><path
             id="path46"
             style="fill:#f2f2f2;fill-opacity:1;fill-rule:nonzero;stroke:none"
             d="m 0,0 c 33.836,33.836 78.824,52.473 126.676,52.473 47.851,0 92.84,-18.637 126.676,-52.473 0.785,-0.785 1.425,-1.652 1.953,-2.57 2.66,4.648 2.015,10.676 -1.953,14.644 C 219.516,45.91 174.527,64.543 126.676,64.543 78.824,64.543 33.836,45.91 0,12.074 -3.969,8.102 -4.613,2.078 -1.953,-2.574 -1.426,-1.652 -0.785,-0.785 0,0" /></g><g
           transform="translate(254.7969,209.9831)"
           id="g48"><path
             id="path50"
             style="fill:#dddddd;fill-opacity:1;fill-rule:nonzero;stroke:none"
             d="m 0,0 c -3.117,0 -6.235,1.187 -8.609,3.566 -17.411,17.41 -40.559,27 -65.184,27 -24.621,0 -47.77,-9.59 -65.18,-27 -4.758,-4.758 -12.465,-4.758 -17.219,0 -4.757,4.754 -4.757,12.461 0,17.215 22.008,22.012 51.274,34.133 82.399,34.133 31.129,0 60.391,-12.121 82.402,-34.133 4.754,-4.754 4.754,-12.465 0,-17.215 C 6.23,1.187 3.113,0 0,0" /></g><g
           transform="translate(98.605,218.2209)"
           id="g52"><path
             id="path54"
             style="fill:#f2f2f2;fill-opacity:1;fill-rule:nonzero;stroke:none"
             d="m 0,0 c 22.008,22.008 51.274,34.129 82.399,34.129 31.125,0 60.391,-12.121 82.398,-34.129 0.719,-0.719 1.313,-1.508 1.813,-2.336 2.82,4.68 2.226,10.84 -1.813,14.879 C 142.79,34.555 113.524,46.676 82.399,46.676 51.274,46.676 22.008,34.555 0,12.543 -4.039,8.508 -4.636,2.344 -1.812,-2.336 -1.312,-1.508 -0.718,-0.719 0,0" /></g><g
           transform="translate(237.0977,14.006)"
           id="g56"><path
             id="path58"
             style="fill:#1c1c22;fill-opacity:1;fill-rule:nonzero;stroke:none"
             d="m 0,0 h -112.184 v 76.961 c 0,4.078 3.316,7.395 7.392,7.395 H -7.395 C -3.316,84.356 0,81.039 0,76.961 Z m -91.313,132.621 c 0,19.418 15.797,35.219 35.219,35.219 19.422,0 35.219,-15.801 35.219,-35.219 V 97.399 h -70.442 v 35.222 z M -7.395,97.399 h -0.433 v 35.218 c 0,26.614 -21.652,48.266 -48.266,48.266 -26.613,0 -48.266,-21.652 -48.266,-48.266 V 97.399 h -0.432 c -11.271,0 -20.438,-9.168 -20.438,-20.438 V -6.523 c 0,-3.602 2.917,-6.524 6.523,-6.524 H 6.52 c 3.605,0 6.523,2.922 6.523,6.524 v 83.484 c 0,11.27 -9.168,20.438 -20.438,20.438" /></g></g></g><g
       id="g60"><g
         clip-path="url(#clipPath66)"
         id="g62"><g
           transform="translate(181.0039,62.7052)"
           id="g68"><path
             id="path70"
             style="fill:#1c1c22;fill-opacity:1;fill-rule:nonzero;stroke:none"
             d="m 0,0 c -4.074,0 -7.391,3.316 -7.391,7.391 0,4.078 3.317,7.394 7.391,7.394 4.074,0 7.391,-3.316 7.391,-7.394 C 7.391,3.316 4.074,0 0,0 m 0,27.828 c -11.27,0 -20.438,-9.168 -20.438,-20.437 0,-8.989 5.836,-16.633 13.914,-19.364 v -8.464 c 0,-3.602 2.922,-6.52 6.524,-6.52 3.602,0 6.523,2.918 6.523,6.52 v 8.464 C 14.602,-9.242 20.437,-1.598 20.437,7.391 20.437,18.66 11.27,27.828 0,27.828" /></g><g
           transform="translate(356.5664,337.8419)"
           id="g72"><path
             id="path74"
             style="fill:#1c1c22;fill-opacity:1;fill-rule:nonzero;stroke:none"
             d="m 0,0 c -8.375,8.371 -17.383,16.195 -26.77,23.254 -2.882,2.164 -6.968,1.586 -9.132,-1.297 -2.164,-2.879 -1.586,-6.969 1.293,-9.133 8.902,-6.687 17.441,-14.109 25.382,-22.051 2.184,-2.175 2.18,-5.812 0,-7.992 -2.175,-2.175 -5.812,-2.179 -7.992,0 -42.293,42.297 -98.527,65.59 -158.343,65.59 -59.816,0 -116.047,-23.297 -158.344,-65.59 -2.009,-2.008 -5.312,-2.191 -7.528,-0.418 -2.589,2.078 -2.816,6.063 -0.464,8.41 44.43,44.434 103.5,68.903 166.336,68.903 39.312,0 78.109,-9.805 112.195,-28.352 3.168,-1.722 7.125,-0.551 8.847,2.61 1.723,3.164 0.555,7.125 -2.609,8.847 -35.996,19.586 -76.949,29.938 -118.433,29.938 -66.316,0 -128.668,-25.824 -175.563,-72.719 -5.945,-5.949 -7.184,-15.461 -2.895,-22.715 3.793,-6.418 11.22,-10.015 18.602,-9.031 4.046,0.535 7.852,2.418 10.734,5.301 39.832,39.832 92.789,61.769 149.122,61.769 56.332,0 109.289,-21.937 149.117,-61.765 5.531,-5.532 14.19,-7.043 21.258,-3.676 7.003,3.34 11.273,10.859 10.589,18.578 C 5.016,-7.195 3.082,-3.086 0,0" /></g></g></g><g
       id="g76"><g
         clip-path="url(#clipPath82)"
         id="g78"><g
           transform="translate(179.6045,343.3405)"
           id="g84"><path
             id="path86"
             style="fill:#1c1c22;fill-opacity:1;fill-rule:nonzero;stroke:none"
             d="m 0,0 c -9.793,0 -19.617,-0.765 -29.203,-2.269 -3.559,-0.563 -5.992,-3.898 -5.434,-7.457 0.563,-3.559 3.906,-5.984 7.457,-5.43 8.922,1.399 18.067,2.114 27.18,2.114 46.109,0 89.461,-17.958 122.063,-50.563 2.179,-2.18 2.179,-5.812 0,-7.992 -2.18,-2.18 -5.817,-2.18 -7.993,0 C 83.598,-41.128 43.09,-24.351 0,-24.351 c -43.09,0 -83.598,-16.777 -114.07,-47.246 -2.008,-2.012 -5.313,-2.192 -7.528,-0.418 -2.59,2.078 -2.816,6.062 -0.465,8.41 16.696,16.699 36.118,29.559 57.723,38.227 3.34,1.339 4.965,5.136 3.625,8.48 -1.344,3.344 -5.141,4.969 -8.484,3.625 -23.246,-9.328 -44.137,-23.156 -62.09,-41.109 -5.531,-5.528 -7.039,-14.188 -3.672,-21.258 3.34,-7.004 10.859,-11.27 18.574,-10.586 4.348,0.387 8.457,2.32 11.539,5.402 28.008,28.004 65.242,43.43 104.848,43.43 39.605,0 76.84,-15.426 104.844,-43.43 5.531,-5.527 14.187,-7.039 21.257,-3.672 7.004,3.34 11.27,10.86 10.59,18.579 -0.386,4.343 -2.32,8.453 -5.402,11.535 C 96.219,-19.312 49.594,0 0,0" /></g><g
           transform="translate(258.793,218.1579)"
           id="g88"><path
             id="path90"
             style="fill:#1c1c22;fill-opacity:1;fill-rule:nonzero;stroke:none"
             d="m 0,0 c -2.18,-2.179 -5.816,-2.175 -7.992,0 -18.645,18.645 -43.434,28.911 -69.797,28.911 -26.363,0 -51.149,-10.266 -69.793,-28.911 -2.008,-2.007 -5.313,-2.191 -7.531,-0.414 -2.59,2.075 -2.813,6.059 -0.461,8.407 20.777,20.781 48.402,32.222 77.785,32.222 C -48.402,40.215 -20.777,28.774 0,7.993 2.18,5.817 2.18,2.18 0,0 m -77.308,53.255 c -32.867,0 -63.77,-12.801 -87.012,-36.043 -5.949,-5.949 -7.187,-15.461 -2.898,-22.715 3.797,-6.418 11.222,-10.011 18.605,-9.031 4.043,0.539 7.848,2.418 10.735,5.301 16.179,16.183 37.691,25.09 60.57,25.09 22.879,0 44.391,-8.91 60.571,-25.09 5.527,-5.526 14.187,-7.039 21.258,-3.672 7.003,3.34 11.269,10.859 10.585,18.578 -0.386,4.344 -2.32,8.453 -5.402,11.535 -23.243,23.246 -54.144,36.047 -87.012,36.047" /></g></g></g></g></svg>